# xmcd CD database file
#
# Track frame offsets:
#	150
#	15265
#	36503
#
# Disc length: 717 seconds
#
# Revision: 1
# Processed by: cddbd v1.5.1PL0 Copyright (c) Steve Scherf et al.
# Submitted via: CDex 1.51
#
DISCID=1902cb03
DTITLE=ZZ Top - Burger Man
DYEAR=1991
DGENRE=Rock
TTITLE0=Burger Man
TTITLE1=2000 Blues
TTITLE2=La Grange
EXTD=YEAR: 1991
EXTT0=
EXTT1=
EXTT2=
PLAYORDER=
